<?xml version="1.0" encoding="utf-8"?>
<!-- Generator: Adobe Illustrator 19.2.1, SVG Export Plug-In . SVG Version: 6.00 Build 0)  -->
<svg version="1.1" id="Слой_1" xmlns="http://www.w3.org/2000/svg" xmlns:xlink="http://www.w3.org/1999/xlink" x="0px" y="0px"
	 viewBox="0 0 17 20" enable-background="new 0 0 17 20" xml:space="preserve">
<path d="M14.2,10.6c0-2.5,2.2-3.7,2.3-3.8c-1.2-1.7-3.1-2-3.8-2c-1.6-0.2-3.2,0.9-4,0.9c-0.8,0-2.1-0.9-3.4-0.9
	c-1.8,0-3.4,1-4.3,2.5C-1,10.5,0.4,15,2.2,17.5C3.1,18.7,4.1,20,5.5,20c1.3-0.1,1.8-0.8,3.4-0.8c1.6,0,2,0.8,3.4,0.8
	c1.4,0,2.3-1.2,3.2-2.5c1-1.4,1.4-2.8,1.4-2.8C17,14.7,14.2,13.7,14.2,10.6z M11.6,3.2c0.7-0.8,1.2-2,1.1-3.2c-1,0-2.3,0.7-3.1,1.5
	C8.9,2.3,8.3,3.5,8.5,4.6C9.6,4.7,10.8,4,11.6,3.2z"/>
</svg>
