<?xml version="1.0" encoding="utf-8"?>
<!-- Generator: Adobe Illustrator 19.2.1, SVG Export Plug-In . SVG Version: 6.00 Build 0)  -->
<svg version="1.1" id="Слой_1" xmlns="http://www.w3.org/2000/svg" xmlns:xlink="http://www.w3.org/1999/xlink" x="0px" y="0px"
	 viewBox="0 0 16 12" enable-background="new 0 0 16 12" xml:space="preserve">
<path fill="#FF4C2C" d="M15.7,6.7c-0.1,0-0.1,0-0.2-0.1c-0.1-0.1-0.2-0.2-0.3-0.2c-0.2-0.1-0.4-0.1-0.7-0.1c-0.1,0-0.2,0-0.3,0
	c0,0,0,0,0,0c0.2-1,0-2-0.4-3.1c-0.4-1-1.2-2.1-2.1-3.1c-0.1-0.1-0.2-0.2-0.2-0.3c0.2,0.4,0.3,0.9,0.4,1.3C12,1.7,12.1,2,12.1,2.4
	c0.1,0.7,0,1.5-0.1,2.2c-0.1,0.5-0.3,0.9-0.5,1.3C8.8,5.2,4.8,4,4.8,4l4.9,2.2L4,5.8l6.5,1.6c-0.2,0.2-0.3,0.4-0.5,0.6
	C9.6,8.5,9.2,9,8.6,9.4c-0.9,0.6-0.7,0.5-1.9,1c-2,0.9-4,1.3-6.7,1.3c5.4,0.6,8.3,0.2,11.2-1.5c0.9-0.5,1.6-1.1,2.1-1.8
	c0.1,0,0.2,0,0.2,0c0,0,0.1,0,0.1,0c0.8-0.1,1.5-0.5,1.9-1.2c0.1-0.1,0.2-0.1,0.3-0.2c0,0,0.1-0.1,0.1-0.1
	C15.9,6.8,15.8,6.8,15.7,6.7z"/>
</svg>
