<?xml version="1.0" encoding="utf-8"?>
<!-- Generator: Adobe Illustrator 19.2.1, SVG Export Plug-In . SVG Version: 6.00 Build 0)  -->
<svg version="1.1" id="Слой_1" xmlns="http://www.w3.org/2000/svg" xmlns:xlink="http://www.w3.org/1999/xlink" x="0px" y="0px"
	 viewBox="0 0 10 12" enable-background="new 0 0 10 12" xml:space="preserve">
<path fill-rule="evenodd" clip-rule="evenodd" d="M8.1,5.5c-0.1,0-0.3,0-0.4-0.1l-1.8,2H5.4l0,0H2.9v1.2c0.6,0.3,1,0.9,1,1.6
	c0,1-0.8,1.7-1.7,1.7s-1.7-0.8-1.7-1.7c0-0.7,0.4-1.3,1-1.6V3.3c-0.6-0.3-1-0.9-1-1.6c0-1,0.8-1.7,1.7-1.7s1.7,0.8,1.7,1.7
	c0,0.7-0.4,1.3-1,1.6V6h2.3l1.3-1.5C6.4,4.3,6.4,4,6.4,3.8c0-1,0.8-1.7,1.7-1.7s1.7,0.8,1.7,1.7S9.1,5.5,8.1,5.5z M2.1,1
	C1.7,1,1.4,1.4,1.4,1.8s0.3,0.7,0.7,0.7s0.7-0.3,0.7-0.7S2.5,1,2.1,1z M2.1,9.5c-0.4,0-0.7,0.3-0.7,0.7S1.7,11,2.1,11
	s0.7-0.3,0.7-0.7S2.5,9.5,2.1,9.5z M8.1,3C7.7,3,7.4,3.4,7.4,3.8s0.3,0.7,0.7,0.7s0.7-0.3,0.7-0.7S8.5,3,8.1,3z"/>
</svg>
