<?xml version="1.0" encoding="utf-8"?>
<!-- Generator: Adobe Illustrator 19.2.1, SVG Export Plug-In . SVG Version: 6.00 Build 0)  -->
<svg version="1.1" id="Слой_1" xmlns="http://www.w3.org/2000/svg" xmlns:xlink="http://www.w3.org/1999/xlink" x="0px" y="0px"
	 viewBox="0 0 17 20" enable-background="new 0 0 17 20" xml:space="preserve">
<path d="M16.6,16.3c-0.5-0.2-1-0.6-0.9-1.2c0-0.7-0.5-1.1-0.5-1.1s0.4-1.4,0-2.6c-0.4-1.2-1.7-3.1-2.8-4.5c-1-1.4-0.2-3.1-1.1-5.2
	c-0.9-2.1-3.4-2-4.7-1.1C5.4,1.5,5.8,3.8,5.9,4.8c0.1,1.1,0,1.8-0.1,2.1C5.6,7.2,4.8,8.2,4.2,9c-0.6,0.8-1,2.6-1.4,3.3
	c-0.4,0.7-0.1,1.4-0.1,1.4s-0.3,0.1-0.5,0.6c-0.2,0.5-0.7,0.7-1.4,0.8c-0.8,0.2-0.8,0.7-0.6,1.2c0.2,0.6,0,0.9-0.2,1.6
	c-0.2,0.7,0.9,0.9,1.9,1.1C3,19,4.2,19.7,5.2,19.9c1,0.1,1.3-0.7,1.3-0.7s1.1-0.3,2.3-0.3c1.2,0,2.3,0.2,2.3,0.2s0.2,0.5,0.6,0.7
	c0.4,0.2,1.3,0.2,1.8-0.3c0.6-0.6,2-1.3,2.9-1.8C17.2,17.2,17.1,16.5,16.6,16.3z M9.3,2.6c0.5,0,1,0.5,1,1.2c0,0.5-0.2,0.9-0.5,1.1
	c-0.1,0-0.2-0.1-0.3-0.1c0.2-0.1,0.3-0.3,0.3-0.6c0-0.4-0.2-0.7-0.5-0.7C9,3.4,8.8,3.7,8.8,4.1c0,0.1,0,0.3,0.1,0.4
	C8.7,4.4,8.6,4.4,8.4,4.3C8.4,4.2,8.3,4,8.3,3.8C8.3,3.1,8.8,2.6,9.3,2.6z M9.2,5.1c0.3,0.1,0.6,0.3,0.5,0.4c0,0.2-0.2,0.2-0.5,0.4
	C8.9,6.1,8.1,6.6,7.8,6.7c-0.3,0-0.4-0.1-0.7-0.3C6.9,6.2,6.4,5.8,6.5,5.6c0,0,0.4-0.3,0.6-0.5C7.3,5,7.7,4.6,8,4.6
	C8.3,4.7,9,5,9.2,5.1z M6.8,2.8c0.4,0,0.8,0.5,0.8,1.1c0,0.1,0,0.2,0,0.3c-0.1,0-0.2,0.1-0.3,0.2c-0.1,0-0.1,0.1-0.1,0.1
	C7.2,4.4,7.2,4.2,7.2,4C7.1,3.7,6.9,3.5,6.7,3.5c-0.2,0-0.4,0.3-0.3,0.7c0.1,0.3,0.3,0.6,0.5,0.5c0,0,0,0,0,0C6.8,4.8,6.7,4.9,6.6,5
	C6.3,4.8,6.1,4.4,6.1,3.9C6.1,3.3,6.4,2.8,6.8,2.8z M6,18.5c-0.1,0.4-0.6,0.8-0.6,0.8c-0.5,0.1-1.8-0.4-2.4-0.7
	c-0.6-0.2-2.1-0.3-2.3-0.5c-0.2-0.2,0.1-0.7,0.2-1.2c0.1-0.5-0.1-0.8-0.1-1.1c0.1-0.3,1-0.3,1.4-0.5c0.4-0.2,0.4-0.9,0.7-1
	C3.3,14,3.8,14.6,4,15c0.2,0.3,1.1,1.8,1.4,2.2C5.8,17.6,6.1,18.1,6,18.5z M11.5,14.2c-0.1,0.4-0.1,2-0.1,2s-1,1.3-2.5,1.6
	c-1.5,0.2-2.2,0.1-2.2,0.1l-0.8-1c0,0,0.7-0.1,0.6-0.7c-0.1-0.7-2-1.6-2.3-2.4c-0.3-0.8-0.1-2.2,0.4-2.9c0.4-0.7,0.7-2.2,1.1-2.7
	c0.4-0.5,0.8-1.6,0.6-2c0,0,0.9,1.1,1.6,0.9C8.5,6.9,10,5.8,10.2,6c0.2,0.2,2.1,4.3,2.3,5.6c0.2,1.3-0.1,2.3-0.1,2.3
	S11.6,13.7,11.5,14.2z M16.3,17.1c-0.3,0.3-1.9,0.9-2.4,1.4c-0.5,0.5-1.1,0.9-1.5,0.8c-0.4-0.1-0.7-0.7-0.6-1.4
	c0.2-0.8,0.3-1.6,0.3-2.1c0-0.5-0.1-1.1,0-1.2c0.1-0.1,0.3,0,0.3,0s-0.1,0.9,0.5,1.2c0.6,0.2,1.3-0.1,1.6-0.3
	c0.2-0.2,0.4-0.6,0.4-0.6s0.2,0.1,0.2,0.5c0,0.4,0.2,0.9,0.5,1.1C16,16.6,16.6,16.8,16.3,17.1z"/>
</svg>
