<?xml version="1.0" encoding="utf-8"?>
<!-- Generator: Adobe Illustrator 19.2.1, SVG Export Plug-In . SVG Version: 6.00 Build 0)  -->
<svg version="1.1" id="Слой_1" xmlns="http://www.w3.org/2000/svg" xmlns:xlink="http://www.w3.org/1999/xlink" x="0px" y="0px"
	 viewBox="0 0 194 31" enable-background="new 0 0 194 31" xml:space="preserve">
<path fill="#FF4C2C" d="M64.5,12.3c0.4-0.3,0.9-0.4,1.5-0.4c0.7,0,1.2,0.2,1.6,0.5c0.4,0.3,0.6,0.8,0.6,1.4h2.6
	c0-0.8-0.2-1.5-0.6-2.1c-0.4-0.6-1-1.1-1.7-1.4c-0.7-0.3-1.5-0.5-2.4-0.5c-0.9,0-1.7,0.2-2.5,0.5c-0.7,0.3-1.3,0.7-1.7,1.3
	c-0.4,0.5-0.6,1.2-0.6,1.9c0,1.3,0.7,2.4,2.2,3.2c0.5,0.3,1.3,0.6,2.2,0.9c0.9,0.3,1.5,0.6,1.9,0.8c0.4,0.3,0.5,0.6,0.5,1.1
	c0,0.5-0.2,0.8-0.5,1.1c-0.4,0.3-0.8,0.4-1.5,0.4c-1.7,0-2.5-0.7-2.5-2.1h-2.6c0,0.8,0.2,1.6,0.6,2.2c0.4,0.6,1,1.1,1.9,1.5
	c0.8,0.4,1.7,0.5,2.7,0.5c1.4,0,2.5-0.3,3.4-0.9c0.8-0.6,1.3-1.5,1.3-2.6c0-1-0.3-1.8-1-2.5c-0.7-0.7-1.8-1.2-3.3-1.7
	c-0.8-0.2-1.4-0.5-1.9-0.8c-0.4-0.3-0.6-0.6-0.6-1C63.9,12.9,64.1,12.6,64.5,12.3z M82.5,19.1L80.4,10h-2.2L76,19L74.3,10h-2.6
	l2.8,12.8h2.7l2.1-8.6l2.1,8.6H84L86.8,10h-2.6L82.5,19.1z M88.4,22.8h2.6V10h-2.6V22.8z M93.5,22.8h2.6v-5.2h5.1v-2.1h-5.1v-3.3
	h5.7V10h-8.3V22.8z M102.8,10v2.1h3.9v10.7h2.6V12.1h3.9V10H102.8z M39.3,16c-0.1-0.3-0.4-0.4-0.7-0.5c-0.5-0.1-1.1-0.2-1.6-0.2
	c-0.3,0-0.5,0.1-0.8,0.1c0.4-2.4,0.1-4.9-1-7.3c-1.1-2.5-2.9-5-5.4-7.5c-0.2-0.2-0.4-0.4-0.6-0.6c0.4,1.1,0.8,2.1,1.1,3.2
	c0.2,0.9,0.3,1.7,0.5,2.6c0.2,1.8,0.1,3.6-0.3,5.3c-0.3,1.1-0.6,2.2-1.1,3.2c-6.7-1.8-16.8-4.6-16.8-4.6l12.3,5.2l-14.1-1L27,17.8
	c-0.4,0.5-0.9,1-1.4,1.5c-1.2,1.2-2.2,2.3-3.7,3.3c-2.2,1.4-1.7,1.2-4.7,2.5c-5.1,2.1-9.9,3.2-16.7,3.2c13.6,1.4,20.6,0.5,28-3.6
	c2.3-1.3,4.1-2.7,5.4-4.4c0.2,0,0.3,0,0.5,0c0.1,0,0.1,0,0.2,0c2-0.2,3.8-1.2,4.8-2.9c0.2-0.2,0.5-0.3,0.7-0.5
	c0.1-0.1,0.2-0.1,0.3-0.2c-0.2-0.2-0.4-0.4-0.7-0.4C39.6,16.2,39.4,16.1,39.3,16z"/>
<path d="M126.3,15.1h-5.1v-3h5.9V10h-8.6v12.8h8.6v-2.1h-5.9v-3.4h5.1V15.1z"/>
<path d="M130.9,10h-3l3.7,6.3l-3.8,6.5h3.1l2.5-4.5l2.5,4.5h3.1l-3.8-6.5l3.7-6.3h-3l-2.4,4.4L130.9,10z"/>
<path d="M145.1,18.2c1.5,0,2.7-0.4,3.6-1.1c0.9-0.7,1.3-1.7,1.3-3c0-0.8-0.2-1.6-0.6-2.2c-0.4-0.6-1-1.1-1.7-1.5
	c-0.7-0.4-1.6-0.5-2.5-0.5h-5v12.8h2.6v-4.5H145.1z M142.8,12.1h2.4c0.7,0,1.2,0.2,1.5,0.6c0.4,0.4,0.6,0.9,0.6,1.5
	c0,0.6-0.2,1.1-0.5,1.4c-0.4,0.3-0.9,0.5-1.6,0.5h-2.4V12.1z"/>
<path d="M158.9,22.8h2.8v-0.1l-2.8-5.2c0.8-0.3,1.3-0.8,1.7-1.4c0.4-0.6,0.6-1.3,0.6-2.2c0-1.2-0.4-2.2-1.2-2.9c-0.8-0.7-2-1-3.5-1
	h-4.8v12.8h2.6v-4.7h2.1L158.9,22.8z M154.4,12.1h2.1c0.7,0,1.2,0.2,1.6,0.5c0.3,0.3,0.5,0.8,0.5,1.4c0,0.6-0.2,1.1-0.5,1.4
	c-0.4,0.3-0.9,0.5-1.5,0.5h-2.1V12.1z"/>
<path d="M171,15.1h-5.1v-3h5.9V10h-8.6v12.8h8.6v-2.1h-5.9v-3.4h5.1V15.1z"/>
<path d="M179.5,20.5c-0.4,0.3-0.8,0.4-1.5,0.4c-1.7,0-2.5-0.7-2.5-2.1h-2.6c0,0.8,0.2,1.6,0.6,2.2c0.4,0.6,1,1.1,1.9,1.5
	c0.8,0.4,1.7,0.5,2.7,0.5c1.4,0,2.5-0.3,3.4-0.9c0.8-0.6,1.3-1.5,1.3-2.6c0-1-0.3-1.8-1-2.5c-0.7-0.7-1.8-1.2-3.3-1.7
	c-0.8-0.2-1.4-0.5-1.9-0.8c-0.4-0.3-0.6-0.6-0.6-1c0-0.4,0.2-0.8,0.5-1.1c0.4-0.3,0.9-0.4,1.5-0.4c0.7,0,1.2,0.2,1.6,0.5
	c0.4,0.3,0.6,0.8,0.6,1.4h2.6c0-0.8-0.2-1.5-0.6-2.1c-0.4-0.6-1-1.1-1.7-1.4c-0.7-0.3-1.5-0.5-2.4-0.5c-0.9,0-1.7,0.2-2.5,0.5
	c-0.7,0.3-1.3,0.7-1.7,1.3c-0.4,0.5-0.6,1.2-0.6,1.9c0,1.3,0.7,2.4,2.2,3.2c0.5,0.3,1.3,0.6,2.2,0.9c0.9,0.3,1.5,0.6,1.9,0.8
	c0.4,0.3,0.5,0.6,0.5,1.1C180.1,19.9,179.9,20.2,179.5,20.5z"/>
<path d="M190.6,20.5c-0.4,0.3-0.8,0.4-1.5,0.4c-1.7,0-2.5-0.7-2.5-2.1h-2.6c0,0.8,0.2,1.6,0.6,2.2c0.4,0.6,1,1.1,1.9,1.5
	c0.8,0.4,1.7,0.5,2.7,0.5c1.4,0,2.5-0.3,3.4-0.9c0.8-0.6,1.3-1.5,1.3-2.6c0-1-0.3-1.8-1-2.5c-0.7-0.7-1.8-1.2-3.3-1.7
	c-0.8-0.2-1.4-0.5-1.8-0.8c-0.4-0.3-0.6-0.6-0.6-1c0-0.4,0.2-0.8,0.5-1.1c0.4-0.3,0.9-0.4,1.5-0.4c0.7,0,1.2,0.2,1.6,0.5
	c0.4,0.3,0.6,0.8,0.6,1.4h2.6c0-0.8-0.2-1.5-0.6-2.1c-0.4-0.6-1-1.1-1.7-1.4c-0.7-0.3-1.5-0.5-2.4-0.5c-0.9,0-1.7,0.2-2.5,0.5
	c-0.7,0.3-1.3,0.7-1.7,1.3c-0.4,0.5-0.6,1.2-0.6,1.9c0,1.3,0.7,2.4,2.2,3.2c0.5,0.3,1.3,0.6,2.2,0.9c0.9,0.3,1.5,0.6,1.9,0.8
	c0.4,0.3,0.5,0.6,0.5,1.1C191.1,19.9,190.9,20.2,190.6,20.5z"/>
</svg>
