<?xml version="1.0"?>
<svg version="1.1" xmlns="http://www.w3.org/2000/svg" xmlns:xlink="http://www.w3.org/1999/xlink" width="44" height="44">
    <desc iVinci="yes" version="4.6" gridStep="20" showGrid="no" snapToGrid="no" codePlatform="0"/>
    <g id="Layer1" name="Layer 1" opacity="1">
        <g id="Shape1">
            <desc shapeID="1" type="0" basicInfo-basicType="0" basicInfo-roundedRectRadius="12" basicInfo-polygonSides="6" basicInfo-starPoints="5" bounding="rect(-11.6247,-11.8485,23.2495,23.6969)" text="" font-familyName="" font-pixelSize="20" font-bold="0" font-underline="0" font-alignment="1" strokeStyle="0" markerStart="0" markerEnd="0" shadowEnabled="0" shadowOffsetX="0" shadowOffsetY="2" shadowBlur="4" shadowOpacity="160" blurEnabled="0" blurRadius="4" transform="matrix(1,0,0,1,22.752,22)" pers-center="0,0" pers-size="0,0" pers-start="0,0" pers-end="0,0" locked="0" mesh="" flag=""/>
            <path id="shapePath1" d="M26.0004,10.613 C26.5904,10.7903 27.4384,11.1401 27.6553,11.7857 C27.8881,12.4683 27.4119,13.0769 27.0203,13.5796 C26.4012,14.3786 23.4537,17.9187 22.7261,18.186 C20.5989,18.9691 19.231,14.3733 16.9926,15.0745 C16.093,15.3576 15.5797,16.3921 15.8655,17.2837 C16.3814,18.9003 19.3977,20.4508 19.2098,22.0462 C18.9981,23.8586 14.9209,26.1843 16.1301,28.1025 C18.1118,31.2458 20.6888,25.5467 22.2843,25.2106 C23.0066,25.0598 23.6125,25.5837 24.102,26.0388 C24.102,26.0388 27.0362,29.19 27.0362,29.19 C27.5071,29.6742 28.2612,30.3753 28.4358,31.0368 C28.6766,31.939 28.079,32.5361 27.3699,32.8933 C25.8459,33.6659 24.0177,33.8658 22.3403,33.8473 C20.7131,33.8288 19.2521,33.3889 17.7758,32.6878 C7.82207,27.9491 9.40357,13.2038 20.124,10.4605 C21.6643,10.087 23.6533,9.96259 25.966,10.603 M33.4206,17.2837 C34.512,19.5049 34.684,23.1284 33.8598,25.4858 C33.5687,26.4754 32.9258,28.4756 31.5341,28.0258 C30.8171,27.7956 29.4651,26.3272 28.8883,25.7504 C28.1342,24.9963 25.88,22.9458 25.6207,22.0462 C25.3614,21.1387 26.0493,20.3185 26.5837,19.665 C27.6077,18.4082 29.5021,16.0614 30.7483,15.1776 C32.3622,14.7437 32.8438,15.9688 33.4206,17.2837 " style="stroke:none;fill-rule:evenodd;fill:#902b19;fill-opacity:1;"/>
        </g>
    </g>
</svg>
