<?xml version="1.0" encoding="utf-8"?>
<!-- Generator: Adobe Illustrator 19.2.1, SVG Export Plug-In . SVG Version: 6.00 Build 0)  -->
<svg version="1.1" id="Слой_1" xmlns="http://www.w3.org/2000/svg" xmlns:xlink="http://www.w3.org/1999/xlink" x="0px" y="0px"
	 viewBox="0 0 30 30" enable-background="new 0 0 30 30" xml:space="preserve">
<g opacity="0.5">
	<g>
		<path fill="#FFFFFF" d="M16.6,13.2L16.6,13.2C16.6,13.2,16.5,13.2,16.6,13.2L16.6,13.2z M15,0C6.8,0,0.1,6.7,0.1,15
			c0,8.3,6.7,15,14.9,15c8.2,0,14.9-6.7,14.9-15C29.9,6.7,23.2,0,15,0z M11,22.5H7.4V11.6H11V22.5z M9.2,10.1L9.2,10.1
			c-1.2,0-2-0.8-2-1.9c0-1.1,0.8-1.9,2-1.9c1.2,0,2,0.8,2,1.9C11.2,9.3,10.4,10.1,9.2,10.1z M23.9,22.5h-3.6v-5.8
			c0-1.5-0.5-2.5-1.8-2.5c-1,0-1.6,0.7-1.8,1.3c-0.1,0.2-0.1,0.6-0.1,0.9v6.1H13c0,0,0-9.8,0-10.9h3.6v1.5c0.5-0.7,1.3-1.8,3.2-1.8
			c2.4,0,4.1,1.6,4.1,4.9V22.5z"/>
	</g>
</g>
</svg>
