<?xml version="1.0" encoding="utf-8"?>
<!-- Generator: Adobe Illustrator 19.2.1, SVG Export Plug-In . SVG Version: 6.00 Build 0)  -->
<svg version="1.1" id="Слой_1" xmlns="http://www.w3.org/2000/svg" xmlns:xlink="http://www.w3.org/1999/xlink" x="0px" y="0px"
	 viewBox="0 0 30 30" enable-background="new 0 0 30 30" xml:space="preserve">
<path opacity="0.5" fill="#FFFFFF" d="M15,0C6.8,0,0.1,6.7,0.1,15c0,8.3,6.7,15,14.9,15c8.2,0,14.9-6.7,14.9-15
	C29.9,6.7,23.2,0,15,0z M23.6,10.6c0,0.2,0,0.4,0,0.6c0,5.9-4.4,12.6-12.6,12.6c-2.5,0-4.8-0.7-6.8-2c0.3,0,0.7,0.1,1.1,0.1
	c2.1,0,4-0.7,5.5-1.9c-1.9,0-3.6-1.3-4.1-3.1C6.9,16.9,7.2,17,7.5,17c0.4,0,0.8-0.1,1.2-0.2c-2-0.4-3.5-2.2-3.5-4.4c0,0,0,0,0-0.1
	c0.6,0.3,1.3,0.5,2,0.6c-1.2-0.8-2-2.2-2-3.7c0-0.8,0.2-1.6,0.6-2.2c2.2,2.7,5.4,4.5,9.1,4.6c-0.1-0.3-0.1-0.7-0.1-1
	c0-2.5,2-4.4,4.4-4.4c1.3,0,2.4,0.5,3.2,1.4c1-0.2,2-0.6,2.8-1.1c-0.3,1-1,1.9-1.9,2.5c0.9-0.1,1.7-0.3,2.5-0.7
	C25.2,9.2,24.4,10,23.6,10.6z"/>
</svg>
